# Blender 4.0.2
# www.blender.org
mtllib tv rack 2.mtl
o Cube
v 2.000000 1.000000 1.000000
v 2.000000 1.000000 -1.000000
v 2.000000 1.000000 1.000000
v 2.000000 1.000000 -1.000000
v 0.000000 1.000000 1.000000
v 0.000000 1.000000 -1.000000
v 1.000000 1.000000 -1.000000
v 1.095839 0.952081 1.000000
v 2.000000 0.500000 1.000000
v 2.000000 0.500000 -1.000000
v 0.000000 0.500000 1.000000
v 0.000000 0.500000 -1.000000
v 1.095839 0.500000 1.000000
v 1.000000 0.500000 -1.000000
v 1.904162 0.500000 1.000000
v 0.888612 0.944306 0.980890
v 1.904162 0.952081 1.000000
v 0.888612 0.555694 0.980890
v 1.140887 0.907033 0.984172
v 1.140887 0.500000 0.984172
v 1.859114 0.500000 0.984172
v 1.859114 0.907033 0.984172
v 1.095838 0.952081 -0.940868
v 1.095838 0.500000 -0.940868
v 1.904161 0.500000 -0.940868
v 1.904161 0.952081 -0.940868
v 1.000000 1.000000 1.000000
v 1.000000 0.500000 1.000000
v 0.111388 0.944306 0.980890
v 0.111388 0.555694 0.980890
v 0.081203 0.959399 1.000000
v 0.081203 0.540601 1.000000
v 0.918797 0.959399 1.000000
v 0.918797 0.540601 1.000000
v -2.000000 1.000000 1.000000
v -2.000000 1.000000 -1.000000
v -2.000000 1.000000 1.000000
v -2.000000 1.000000 -1.000000
v -1.000000 1.000000 -1.000000
v -1.095838 0.952081 1.000000
v -2.000000 0.500000 1.000000
v -2.000000 0.500000 -1.000000
v -1.095838 0.500000 1.000000
v -1.000000 0.500000 -1.000000
v -1.904161 0.500000 1.000000
v -0.888612 0.944306 0.980890
v -1.904161 0.952081 1.000000
v -0.888612 0.555694 0.980890
v -1.140886 0.907033 0.984172
v -1.140886 0.500000 0.984172
v -1.859113 0.500000 0.984172
v -1.859113 0.907033 0.984172
v -1.095839 0.952081 -0.940868
v -1.095839 0.500000 -0.940868
v -1.904162 0.500000 -0.940868
v -1.904162 0.952081 -0.940868
v -1.000000 1.000000 1.000000
v -1.000000 0.500000 1.000000
v -0.111388 0.944306 0.980890
v -0.111388 0.555694 0.980890
v -0.081203 0.959399 1.000000
v -0.081203 0.540601 1.000000
v -0.918797 0.959399 1.000000
v -0.918797 0.540601 1.000000
v 2.000000 0.000000 1.000000
v 2.000000 -0.000000 -1.000000
v 2.000000 0.000000 1.000000
v 2.000000 -0.000000 -1.000000
v 0.000000 0.000000 1.000000
v 0.000000 -0.000000 -1.000000
v 1.000000 -0.000000 -1.000000
v 1.095839 0.047919 1.000000
v 0.888612 0.055694 0.980890
v 1.904162 0.047919 1.000000
v 0.888612 0.444306 0.980890
v 1.140887 0.092967 0.984172
v 1.859114 0.092967 0.984172
v 1.095838 0.047919 -0.940868
v 1.904161 0.047919 -0.940868
v 1.000000 0.000000 1.000000
v 0.111388 0.055694 0.980890
v 0.111388 0.444306 0.980890
v 0.081203 0.040601 1.000000
v 0.081203 0.459399 1.000000
v 0.918797 0.040601 1.000000
v 0.918797 0.459399 1.000000
v -2.000000 0.000000 1.000000
v -2.000000 -0.000000 -1.000000
v -2.000000 0.000000 1.000000
v -2.000000 -0.000000 -1.000000
v -1.000000 -0.000000 -1.000000
v -1.095838 0.047919 1.000000
v -0.888612 0.055694 0.980890
v -1.904161 0.047919 1.000000
v -0.888612 0.444306 0.980890
v -1.140886 0.092967 0.984172
v -1.859113 0.092967 0.984172
v -1.095839 0.047919 -0.940868
v -1.904162 0.047919 -0.940868
v -1.000000 0.000000 1.000000
v -0.111388 0.055694 0.980890
v -0.111388 0.444306 0.980890
v -0.081203 0.040601 1.000000
v -0.081203 0.459399 1.000000
v -0.918797 0.040601 1.000000
v -0.918797 0.459399 1.000000
v -1.904161 0.500000 1.000000
v -1.904161 0.952081 1.000000
v 1.904162 0.500000 1.000000
v 1.904162 0.047919 1.000000
v -1.904161 0.047919 1.000000
v -1.095838 0.500000 1.000000
v -1.095838 0.047919 1.000000
v -1.095838 0.952081 1.000000
v 1.095839 0.047919 1.000000
v 1.095839 0.952081 1.000000
v 1.095839 0.500000 1.000000
v 1.904162 0.952081 1.000000
vn -0.0000 -0.0000 -1.0000
vn -0.0000 -0.0000 1.0000
vn -0.0000 1.0000 -0.0000
vn 1.0000 -0.0000 -0.0000
vn -0.0000 -1.0000 -0.0000
vn -1.0000 -0.0000 -0.0000
vn 0.5349 -0.0000 0.8449
vn -0.0000 -0.7848 0.6198
vn -0.5349 -0.0000 0.8449
vn -0.0000 0.7848 0.6198
vn -0.3315 -0.0000 -0.9435
vn 0.3315 -0.0000 -0.9435
vn -0.0000 0.3315 -0.9435
vn -0.0000 -0.3315 -0.9435
vt 0.500000 0.187500
vt 0.625000 0.187500
vt 0.625000 0.250000
vt 0.500000 0.250000
vt 0.513923 0.569462
vt 0.611076 0.569462
vt 0.611077 0.618038
vt 0.513924 0.618038
vt 0.625000 0.562500
vt 0.875000 0.562500
vt 0.875000 0.625000
vt 0.625000 0.625000
vt 0.625000 0.500000
vt 0.875000 0.500000
vt 0.500000 0.125000
vt 0.625000 0.125000
vt 0.606133 0.549623
vt 0.581416 0.474386
vt 0.104027 0.110017
vt 0.000000 0.000000
vt 0.479494 0.536004
vt 0.500000 0.562500
vt 0.614850 0.619925
vt 0.614850 0.567575
vt 0.510150 0.619925
vt 0.500000 0.625000
vt 0.510150 0.567575
s 0
usemtl Material.001
f 14/1/1 7/2/1 2/3/1 10/4/1
f 18/5/2 16/6/2 29/7/2 30/8/2
f 27/9/3 7/10/3 6/11/3 5/12/3
f 1/13/3 2/14/3 7/10/3 27/9/3
f 12/15/1 6/16/1 7/2/1 14/1/1
f 8/17/2 17/18/2 1/13/2 27/9/2
f 17/18/2 15/19/2 9/20/2 1/13/2
f 13/21/2 8/17/2 27/9/2 28/22/2
f 15/19/3 17/18/1 118/18/3 109/19/1
f 17/18/3 8/17/1 116/17/3 118/18/1
f 8/17/3 13/21/1 117/21/3 116/17/1
f 116/17/4 117/21/4 24/21/4 23/17/4
f 118/18/5 116/17/5 23/17/5 26/18/5
f 109/19/6 118/18/6 26/18/6 25/19/6
f 31/23/2 33/24/2 27/9/2 5/12/2
f 32/25/2 31/23/2 5/12/2 11/26/2
f 33/24/2 34/27/2 28/22/2 27/9/2
f 34/27/2 32/25/2 11/26/2 28/22/2
f 30/8/7 29/7/7 31/23/7 32/25/7
f 29/7/8 16/6/8 33/24/8 31/23/8
f 16/6/9 18/5/9 34/27/9 33/24/9
f 18/5/10 30/8/10 32/25/10 34/27/10
f 4/20/4 3/20/4 9/20/4 10/20/4
f 44/1/1 42/4/1 36/3/1 39/2/1
f 48/5/2 60/8/2 59/7/2 46/6/2
f 57/9/3 5/12/3 6/11/3 39/10/3
f 35/13/3 57/9/3 39/10/3 36/14/3
f 12/15/1 44/1/1 39/2/1 6/16/1
f 40/17/2 57/9/2 35/13/2 47/18/2
f 47/18/2 35/13/2 41/20/2 45/19/2
f 43/21/2 58/22/2 57/9/2 40/17/2
f 45/19/1 107/19/3 108/18/1 47/18/3
f 47/18/1 108/18/3 114/17/1 40/17/3
f 40/17/1 114/17/3 112/21/1 43/21/3
f 114/17/6 53/17/6 54/21/6 112/21/6
f 108/18/5 56/18/5 53/17/5 114/17/5
f 107/19/4 55/19/4 56/18/4 108/18/4
f 61/23/2 5/12/2 57/9/2 63/24/2
f 62/25/2 11/26/2 5/12/2 61/23/2
f 63/24/2 57/9/2 58/22/2 64/27/2
f 64/27/2 58/22/2 11/26/2 62/25/2
f 60/8/9 62/25/9 61/23/9 59/7/9
f 59/7/8 61/23/8 63/24/8 46/6/8
f 46/6/7 63/24/7 64/27/7 48/5/7
f 48/5/10 64/27/10 62/25/10 60/8/10
f 38/20/6 42/20/6 41/20/6 37/20/6
f 14/1/1 10/4/1 66/3/1 71/2/1
f 75/5/2 82/8/2 81/7/2 73/6/2
f 80/9/5 69/12/5 70/11/5 71/10/5
f 65/13/5 80/9/5 71/10/5 66/14/5
f 12/15/1 14/1/1 71/2/1 70/16/1
f 72/17/2 80/9/2 65/13/2 74/18/2
f 74/18/2 65/13/2 9/20/2 15/19/2
f 13/21/2 28/22/2 80/9/2 72/17/2
f 15/19/1 109/19/3 110/18/1 74/18/3
f 74/18/1 110/18/3 115/17/1 72/17/3
f 72/17/1 115/17/3 117/21/1 13/21/3
f 115/17/4 78/17/4 24/21/4 117/21/4
f 110/18/3 79/18/3 78/17/3 115/17/3
f 109/19/6 25/19/6 79/18/6 110/18/6
f 83/23/2 69/12/2 80/9/2 85/24/2
f 84/25/2 11/26/2 69/12/2 83/23/2
f 85/24/2 80/9/2 28/22/2 86/27/2
f 86/27/2 28/22/2 11/26/2 84/25/2
f 82/8/7 84/25/7 83/23/7 81/7/7
f 81/7/10 83/23/10 85/24/10 73/6/10
f 73/6/9 85/24/9 86/27/9 75/5/9
f 75/5/8 86/27/8 84/25/8 82/8/8
f 68/20/4 10/20/4 9/20/4 67/20/4
f 44/1/1 91/2/1 88/3/1 42/4/1
f 95/5/2 93/6/2 101/7/2 102/8/2
f 100/9/5 91/10/5 70/11/5 69/12/5
f 87/13/5 88/14/5 91/10/5 100/9/5
f 12/15/1 70/16/1 91/2/1 44/1/1
f 92/17/2 94/18/2 87/13/2 100/9/2
f 94/18/2 45/19/2 41/20/2 87/13/2
f 43/21/2 92/17/2 100/9/2 58/22/2
f 45/19/3 94/18/1 111/18/3 107/19/1
f 94/18/3 92/17/1 113/17/3 111/18/1
f 92/17/3 43/21/1 112/21/3 113/17/1
f 113/17/6 112/21/6 54/21/6 98/17/6
f 111/18/3 113/17/3 98/17/3 99/18/3
f 107/19/4 111/18/4 99/18/4 55/19/4
f 103/23/2 105/24/2 100/9/2 69/12/2
f 104/25/2 103/23/2 69/12/2 11/26/2
f 105/24/2 106/27/2 58/22/2 100/9/2
f 106/27/2 104/25/2 11/26/2 58/22/2
f 102/8/9 101/7/9 103/23/9 104/25/9
f 101/7/10 93/6/10 105/24/10 103/23/10
f 93/6/7 95/5/7 106/27/7 105/24/7
f 95/5/8 102/8/8 104/25/8 106/27/8
f 90/20/6 89/20/6 41/20/6 42/20/6
f 22/20/1 21/20/1 77/20/1 76/20/1 20/20/1 19/20/1
f 97/20/1 51/20/1 52/20/1 49/20/1 50/20/1 96/20/1
f 52/20/11 51/20/11 107/20/11 108/20/11
f 77/20/12 21/20/12 109/20/12 110/20/12
f 51/20/11 97/20/11 111/20/11 107/20/11
f 96/20/12 50/20/12 112/20/12 113/20/12
f 50/20/12 49/20/12 114/20/12 112/20/12
f 49/20/13 52/20/13 108/20/13 114/20/13
f 76/20/14 77/20/14 110/20/14 115/20/14
f 19/20/11 20/20/11 117/20/11 116/20/11
f 22/20/13 19/20/13 116/20/13 118/20/13
f 21/20/12 22/20/12 118/20/12 109/20/12
f 20/20/11 76/20/11 115/20/11 117/20/11
f 97/20/14 96/20/14 113/20/14 111/20/14
